<?xml version="1.0" encoding="UTF-8" standalone="no"?>
<!-- Created with Inkscape (http://www.inkscape.org/) -->

<svg
   xmlns:dc="http://purl.org/dc/elements/1.1/"
   xmlns:cc="http://creativecommons.org/ns#"
   xmlns:rdf="http://www.w3.org/1999/02/22-rdf-syntax-ns#"
   xmlns:svg="http://www.w3.org/2000/svg"
   xmlns="http://www.w3.org/2000/svg"
   xmlns:xlink="http://www.w3.org/1999/xlink"
   xmlns:sodipodi="http://sodipodi.sourceforge.net/DTD/sodipodi-0.dtd"
   xmlns:inkscape="http://www.inkscape.org/namespaces/inkscape"
   width="179.21111mm"
   height="87.488892mm"
   viewBox="0 0 634.99998 310.00001"
   id="svg20995"
   version="1.1"
   inkscape:version="0.91 r13725"
   sodipodi:docname="broadcasts.svg">
  <defs
     id="defs20997">
    <clipPath
       id="SVGID_2_-5">
      <use
         id="use33610"
         overflow="visible"
         xlink:href="#SVGID_1_-1"
         style="overflow:visible"
         x="0"
         y="0"
         width="100%"
         height="100%" />
    </clipPath>
    <defs
       id="defs33606">
      <path
         d="m 138.813,222.147 c 0,-31.185 -25.28,-56.466 -56.466,-56.466 -31.185,0 -56.465,25.281 -56.465,56.466 0,31.186 25.28,56.467 56.465,56.467 31.186,0 56.466,-25.281 56.466,-56.467"
         id="SVGID_1_-1"
         inkscape:connector-curvature="0" />
    </defs>
  </defs>
  <sodipodi:namedview
     id="base"
     pagecolor="#ffffff"
     bordercolor="#666666"
     borderopacity="1.0"
     inkscape:pageopacity="0.0"
     inkscape:pageshadow="2"
     inkscape:zoom="1"
     inkscape:cx="310.66428"
     inkscape:cy="124.76737"
     inkscape:document-units="px"
     inkscape:current-layer="svg20995"
     showgrid="false"
     fit-margin-top="0"
     fit-margin-left="0"
     fit-margin-right="0"
     fit-margin-bottom="0"
     inkscape:window-width="1920"
     inkscape:window-height="1043"
     inkscape:window-x="0"
     inkscape:window-y="0"
     inkscape:window-maximized="1" />
  <metadata
     id="metadata21000">
    <rdf:RDF>
      <cc:Work
         rdf:about="">
        <dc:format>image/svg+xml</dc:format>
        <dc:type
           rdf:resource="http://purl.org/dc/dcmitype/StillImage" />
        <dc:title></dc:title>
        <cc:license
           rdf:resource="http://creativecommons.org/licenses/by-sa/3.0/" />
      </cc:Work>
      <cc:License
         rdf:about="http://creativecommons.org/licenses/by-sa/3.0/">
        <cc:permits
           rdf:resource="http://creativecommons.org/ns#Reproduction" />
        <cc:permits
           rdf:resource="http://creativecommons.org/ns#Distribution" />
        <cc:requires
           rdf:resource="http://creativecommons.org/ns#Notice" />
        <cc:requires
           rdf:resource="http://creativecommons.org/ns#Attribution" />
        <cc:permits
           rdf:resource="http://creativecommons.org/ns#DerivativeWorks" />
        <cc:requires
           rdf:resource="http://creativecommons.org/ns#ShareAlike" />
      </cc:License>
    </rdf:RDF>
  </metadata>
  <g
     id="broadcastsWindow">
    <path
       id="path33584"
       d="m 14.176,308.004 c -6.716,0 -12.18,-5.439 -12.18,-12.125 l 0,-281.758 C 1.996,7.435 7.46,1.996 14.176,1.996 l 606.646,0 c 6.717,0 12.182,5.439 12.182,12.125 l 0,281.758 c 0,6.686 -5.465,12.125 -12.182,12.125 l -606.646,0 z"
       inkscape:connector-curvature="0"
       style="clip-rule:evenodd;fill:#d5451a;fill-rule:evenodd" />
    <path
       id="path33586"
       d="m 620.822,3.993 c 5.616,0 10.185,4.543 10.185,10.128 l 0,281.758 c 0,5.585 -4.568,10.128 -10.185,10.128 l -606.646,0 c -5.615,0 -10.183,-4.543 -10.183,-10.128 l 0,-281.758 C 3.993,8.537 8.561,3.993 14.176,3.993 l 606.646,0 M 620.822,0 14.176,0 C 6.347,0 0,6.322 0,14.121 L 0,295.879 C 0,303.678 6.347,310 14.176,310 l 606.646,0 C 628.652,310 635,303.678 635,295.879 L 635,14.121 C 635,6.322 628.652,0 620.822,0 l 0,0 z"
       inkscape:connector-curvature="0"
       style="fill:#ffffff" />
    <path
       id="path33590"
       d="m 177.729,264.962 c -4.374,0 -7.932,-4.219 -7.932,-9.404 l 0,-216.009 c 0,-5.186 3.558,-9.404 7.932,-9.404 l 400.208,0 c 4.375,0 7.934,4.219 7.934,9.404 l 0,216.009 c 0,5.186 -3.559,9.404 -7.934,9.404 l -400.208,0 z"
       inkscape:connector-curvature="0"
       style="clip-rule:evenodd;fill:#d5451a;fill-rule:evenodd" />
    <path
       id="path33592"
       d="m 577.938,31.564 c 3.592,0 6.514,3.582 6.514,7.984 l 0,216.009 c 0,4.402 -2.922,7.984 -6.514,7.984 l -400.209,0 c -3.591,0 -6.512,-3.582 -6.512,-7.984 l 0,-216.008 c 0,-4.403 2.921,-7.984 6.512,-7.984 l 400.209,0 m 0,-2.84 -400.209,0 c -5.165,0 -9.352,4.847 -9.352,10.824 l 0,216.009 c 0,5.978 4.187,10.824 9.352,10.824 l 400.208,0 c 5.166,0 9.354,-4.847 9.354,-10.824 l 0,-216.009 c 0,-5.978 -4.187,-10.824 -9.353,-10.824 l 0,0 z"
       inkscape:connector-curvature="0"
       style="fill:#ffffff" />
    <g
       id="g3502">
      <path
         id="path33598"
         d="m 138.813,222.146 c 0,-31.185 -25.281,-56.465 -56.466,-56.465 -31.185,0 -56.465,25.28 -56.465,56.465 0,31.185 25.28,56.466 56.465,56.466 31.185,0 56.466,-25.281 56.466,-56.466"
         inkscape:connector-curvature="0"
         style="fill:#837977" />
      <path
         id="path33600"
         d="m 138.813,222.146 c 0,-31.185 -25.281,-56.465 -56.466,-56.465 l 0,112.931 c 31.185,0 56.466,-25.281 56.466,-56.466"
         inkscape:connector-curvature="0"
         style="fill:#7b7270" />
      <path
         id="path33602"
         d="m 138.813,222.147 c 0,-31.185 -25.28,-56.466 -56.466,-56.466 -31.185,0 -56.465,25.281 -56.465,56.466 0,31.186 25.28,56.467 56.465,56.467 31.186,0 56.466,-25.281 56.466,-56.467"
         inkscape:connector-curvature="0"
         style="fill:#27a69c" />
      <g
         id="g3540">
        <polyline
           id="polyline33612"
           points="90.616,254.521 82.544,274.112 74.08,254.521 74.08,236.388      90.616,236.388 90.616,254.521    "
           clip-path="url(#SVGID_2_-5)"
           style="fill:#d9a78c" />
        <path
           id="path33614"
           d="m 74.08,247.193 c 0,0 -17.73,2.298 -20.051,4.716 -2.022,2.107 -6.225,22.277 -7.198,26.705 27.603,0 35.516,0 35.516,0 l 0,-10.635 -8.267,-20.786"
           clip-path="url(#SVGID_2_-5)"
           inkscape:connector-curvature="0"
           style="fill:#f2f2f2" />
        <path
           id="path33616"
           d="m 90.616,247.193 c 0,0 17.728,2.298 20.049,4.716 2.021,2.107 6.227,22.277 7.197,26.705 -27.602,0 -35.516,0 -35.516,0 l 0,-10.635 8.27,-20.786"
           clip-path="url(#SVGID_2_-5)"
           inkscape:connector-curvature="0"
           style="fill:#e7e7e7" />
        <path
           id="path33618"
           d="m 82.347,184.504 c 8.029,0 20.726,4.564 20.726,25.952 0,12.35 -4.026,20.438 -5.78,22.677 -1.614,2.06 -10.688,6.447 -14.946,6.447 0,-21.616 0,-55.076 0,-55.076"
           clip-path="url(#SVGID_2_-5)"
           inkscape:connector-curvature="0"
           style="fill:#e9bfa7" />
        <path
           id="path33620"
           d="m 107.067,215.556 c 0.354,-3.417 -1.274,-6.449 -3.636,-6.773 -2.363,-0.324 -4.564,2.184 -4.919,5.602 -0.354,3.416 1.274,6.447 3.637,6.771 2.363,0.324 4.563,-2.184 4.918,-5.6"
           clip-path="url(#SVGID_2_-5)"
           inkscape:connector-curvature="0"
           style="fill:#e9bfa7" />
        <path
           id="path33622"
           d="m 82.347,184.504 c -8.029,0 -20.726,4.564 -20.726,25.952 0,12.35 4.026,20.438 5.78,22.677 1.614,2.06 10.688,6.447 14.945,6.447 10e-4,-21.616 10e-4,-55.076 10e-4,-55.076"
           clip-path="url(#SVGID_2_-5)"
           inkscape:connector-curvature="0"
           style="fill:#f2d8bc" />
        <path
           id="path33624"
           d="m 57.628,215.556 c -0.354,-3.417 1.274,-6.449 3.636,-6.773 2.363,-0.324 4.564,2.184 4.919,5.602 0.354,3.416 -1.274,6.447 -3.637,6.771 -2.362,0.323 -4.565,-2.184 -4.918,-5.6"
           clip-path="url(#SVGID_2_-5)"
           inkscape:connector-curvature="0"
           style="fill:#f2d8bc" />
        <path
           id="path33626"
           d="m 64.381,215.931 1.431,0 c 0,0 -0.871,-5.57 1.683,-7.367 0,-2.785 0,-3.599 0,-3.599 0,0 -0.987,-0.114 -0.987,-4.35 0,-4.237 5.048,-7.253 15.839,-7.253 0,-6.033 0,-15.494 0,-15.494 0,0 -21.332,0.455 -21.332,15.938 0,6.43 0,14.989 0,14.989 0,0 1.557,-0.276 2.669,0.657 1.2,1.006 0.697,6.479 0.697,6.479"
           clip-path="url(#SVGID_2_-5)"
           inkscape:connector-curvature="0"
           style="fill:#2f343a" />
        <path
           id="path33628"
           d="m 100.314,215.931 -1.431,0 c 0,0 0.87,-5.57 -1.682,-7.367 0,-2.785 0,-3.599 0,-3.599 0,0 0.986,-0.114 0.986,-4.35 0,-4.237 -5.048,-7.253 -15.839,-7.253 0,-6.033 0,-15.494 0,-15.494 0,0 21.332,-0.486 21.332,14.995 0,6.432 0,15.932 0,15.932 0,0 -1.556,-0.276 -2.669,0.657 -1.2,1.006 -0.697,6.479 -0.697,6.479"
           clip-path="url(#SVGID_2_-5)"
           inkscape:connector-curvature="0"
           style="fill:#2f343a" />
        <polyline
           id="polyline33630"
           points="82.347,267.979 76.728,248.776 74.653,257.431 82.347,267.979         "
           clip-path="url(#SVGID_2_-5)"
           style="fill:#a0b3be" />
        <polyline
           id="polyline33632"
           points="73.846,245.206 76.796,249.04 74.653,257.431 70.122,251.317      73.846,245.206    "
           clip-path="url(#SVGID_2_-5)"
           style="fill:#ffffff" />
        <polyline
           id="polyline33634"
           points="82.348,267.979 87.437,248.551 90.042,257.431 82.348,267.979         "
           clip-path="url(#SVGID_2_-5)"
           style="fill:#a0b3be" />
        <polyline
           id="polyline33636"
           points="90.848,245.206 87.369,248.813 90.042,257.431 94.966,251.317      90.848,245.206    "
           clip-path="url(#SVGID_2_-5)"
           style="fill:#ffffff" />
        <path
           id="path33638"
           d="m 82.347,230.368 c 3.743,0 6.776,-1.235 6.776,-2.762 l -13.552,0 c 0,1.527 3.033,2.762 6.776,2.762"
           clip-path="url(#SVGID_2_-5)"
           inkscape:connector-curvature="0"
           style="fill:#ffffff" />
      </g>
      <ellipse
         id="ellipse33640"
         ry="2.26"
         rx="3.826"
         cy="206.70398"
         cx="73.842003"
         style="fill:#ffffff" />
      <circle
         id="circle33642"
         r="1.08"
         cy="206.70398"
         cx="73.842003"
         style="fill:#27a69c" />
      <ellipse
         id="ellipse33644"
         ry="2.26"
         rx="3.826"
         cy="206.70398"
         cx="89.935997"
         style="fill:#ffffff" />
      <circle
         id="circle33646"
         r="1.08"
         cy="206.70398"
         cx="89.935997"
         style="fill:#27a69c" />
    </g>
    <g
       id="g3561">
      <path
         id="path33650"
         d="m 53.541,155.578 -5.743,0 0,-14.873 5.743,0 0,14.873 z"
         inkscape:connector-curvature="0"
         style="fill:#ffffff" />
      <path
         id="path33652"
         d="m 71.45,140.705 0,14.873 -5.435,0 -4.665,-7.635 0,7.635 -5.259,0 0,-14.873 5.721,0 4.378,7.59 0,-7.59 5.26,0 z"
         inkscape:connector-curvature="0"
         style="fill:#ffffff" />
      <path
         id="path33654"
         d="m 79.676,144.93 0,1.826 5.237,0 0,4.378 -5.237,0 0,4.444 -5.676,0 0,-14.873 11.662,0 0,4.225 -5.986,0 z"
         inkscape:connector-curvature="0"
         style="fill:#ffffff" />
      <path
         id="path33656"
         d="m 103.614,148.142 c 0,4.819 -3.411,7.724 -8.405,7.724 -5.017,0 -8.427,-2.904 -8.427,-7.724 0,-4.82 3.41,-7.724 8.427,-7.724 4.995,0 8.405,2.904 8.405,7.724 z m -5.787,0 c 0,-2.2 -0.88,-3.454 -2.618,-3.454 -1.76,0 -2.641,1.254 -2.641,3.454 0,2.2 0.88,3.454 2.641,3.454 1.738,0 2.618,-1.254 2.618,-3.454 z"
         inkscape:connector-curvature="0"
         style="fill:#ffffff" />
      <path
         id="path33658"
         d="m 117.605,150.584 c 0,3.652 -2.552,5.281 -6.469,5.281 -2.663,0 -4.511,-0.463 -6.183,-1.123 l 0.902,-4.026 c 1.408,0.683 2.794,1.21 4.907,1.21 0.946,0 1.232,-0.242 1.232,-0.55 0,-1.101 -7.041,-0.198 -6.997,-5.831 0.022,-3.322 2.553,-5.127 6.337,-5.127 2.09,0 4.049,0.375 5.699,0.858 l -0.902,4.005 c -0.968,-0.439 -2.663,-0.881 -4.401,-0.881 -0.748,0 -1.232,0.111 -1.232,0.551 0,1.078 7.107,0.374 7.107,5.633 z"
         inkscape:connector-curvature="0"
         style="fill:#ffffff" />
    </g>
    <g
       id="g3579">
      <path
         id="path33662"
         d="m 42.972,127.048 0,4.042 c -0.828,0.359 -1.859,0.611 -3.37,0.611 -2.626,0 -4.605,-1.523 -4.605,-4.186 0,-2.615 1.979,-4.234 4.75,-4.234 1.319,0 2.063,0.168 2.878,0.385 l -0.396,2.23 c -0.492,-0.145 -1.079,-0.287 -1.871,-0.287 -1.595,0 -2.183,0.755 -2.183,1.906 0,1.283 0.924,1.859 1.787,1.859 0.108,0 0.204,-0.012 0.288,-0.024 l 0,-2.303 2.722,0 z"
         inkscape:connector-curvature="0"
         style="fill:#ffffff" />
      <path
         id="path33664"
         d="m 50.7,127.791 0,3.754 -3.022,0 0,-0.588 c -0.468,0.433 -1.055,0.744 -1.859,0.744 -1.271,0 -2.159,-0.924 -2.159,-2.039 0,-1.355 0.995,-2.051 2.734,-2.051 0.312,0 0.971,0.061 1.247,0.12 l 0,-0.06 c 0,-0.385 -0.348,-0.588 -1.115,-0.588 -0.684,0 -1.427,0.132 -1.991,0.348 l -0.42,-1.895 c 0.804,-0.313 1.895,-0.504 3.059,-0.504 2.363,0.001 3.526,0.948 3.526,2.759 z m -2.986,1.176 c -0.12,-0.023 -0.276,-0.036 -0.444,-0.036 -0.468,0 -0.744,0.228 -0.744,0.588 0,0.288 0.192,0.491 0.528,0.491 0.492,0 0.66,-0.383 0.66,-0.827 l 0,-0.216 z"
         inkscape:connector-curvature="0"
         style="fill:#ffffff" />
      <path
         id="path33666"
         d="m 63.13,127.229 0,4.316 -3.059,0 0,-3.633 c 0,-0.324 -0.216,-0.588 -0.528,-0.588 -0.312,0 -0.54,0.264 -0.54,0.588 l 0,3.633 -3.058,0 0,-3.633 c 0,-0.324 -0.216,-0.588 -0.528,-0.588 -0.312,0 -0.54,0.264 -0.54,0.588 l 0,3.633 -3.057,0 0,-6.355 2.926,0 0,0.646 c 0.432,-0.467 1.175,-0.803 2.003,-0.803 0.792,0 1.463,0.359 1.859,0.924 0.312,-0.348 1.056,-0.924 2.267,-0.924 1.283,0 2.255,0.936 2.255,2.196 z"
         inkscape:connector-curvature="0"
         style="fill:#ffffff" />
      <path
         id="path33668"
         d="m 66.723,129.074 c 0.264,0.54 0.923,0.684 1.739,0.684 0.612,0 1.164,-0.131 1.667,-0.299 l 0.312,1.799 c -0.731,0.287 -1.739,0.443 -2.71,0.443 -2.063,0 -3.778,-1.092 -3.778,-3.406 0,-1.99 1.583,-3.262 3.442,-3.262 2.663,0 3.634,1.763 3.322,4.041 l -3.994,0 z m 1.499,-1.427 c -0.06,-0.456 -0.276,-0.839 -0.755,-0.839 -0.504,0 -0.732,0.383 -0.828,0.839 l 1.583,0 z m 0,0 -1.583,0 1.583,0 z"
         inkscape:connector-curvature="0"
         style="fill:#ffffff" />
      <path
         id="path33670"
         d="m 81.839,128.367 c 0,2.111 -1.763,3.334 -3.826,3.334 -2.075,0 -3.85,-1.211 -3.85,-3.334 0,-2.123 1.775,-3.334 3.85,-3.334 2.064,0 3.826,1.223 3.826,3.334 z m -2.938,0 c 0,-0.6 -0.36,-1.115 -0.9,-1.115 -0.54,0 -0.899,0.516 -0.899,1.115 0,0.599 0.36,1.115 0.899,1.115 0.541,0 0.9,-0.515 0.9,-1.115 z"
         inkscape:connector-curvature="0"
         style="fill:#ffffff" />
      <path
         id="path33672"
         d="m 87.373,122.826 -0.204,1.68 c -0.084,-0.013 -0.192,-0.024 -0.288,-0.024 -0.372,0 -0.744,0.048 -0.744,0.659 l 0,0.049 1.007,0 0,2.098 -1.007,0 0,4.258 -3.059,0 0,-4.258 -0.671,0 0,-2.098 0.671,0 0,-0.024 c 0,-2.11 1.284,-2.639 2.531,-2.639 0.745,-0.001 1.344,0.131 1.764,0.299 z"
         inkscape:connector-curvature="0"
         style="fill:#ffffff" />
      <path
         id="path33674"
         d="m 94.022,125.74 0,0.996 2.854,0 0,2.387 -2.854,0 0,2.422 -3.094,0 0,-8.107 6.356,0 0,2.303 -3.262,0 z"
         inkscape:connector-curvature="0"
         style="fill:#ffffff" />
      <path
         id="path33676"
         d="m 104.76,127.791 0,3.754 -3.022,0 0,-0.588 c -0.468,0.433 -1.055,0.744 -1.859,0.744 -1.271,0 -2.159,-0.924 -2.159,-2.039 0,-1.355 0.995,-2.051 2.734,-2.051 0.312,0 0.971,0.061 1.247,0.12 l 0,-0.06 c 0,-0.385 -0.348,-0.588 -1.115,-0.588 -0.684,0 -1.427,0.132 -1.991,0.348 l -0.42,-1.895 c 0.804,-0.313 1.895,-0.504 3.059,-0.504 2.362,0.001 3.526,0.948 3.526,2.759 z m -2.987,1.176 c -0.12,-0.023 -0.276,-0.036 -0.444,-0.036 -0.468,0 -0.744,0.228 -0.744,0.588 0,0.288 0.192,0.491 0.528,0.491 0.492,0 0.66,-0.383 0.66,-0.827 l 0,-0.216 z"
         inkscape:connector-curvature="0"
         style="fill:#ffffff" />
      <path
         id="path33678"
         d="m 108.938,129.171 0,2.374 -3.059,0 0,-6.355 2.854,0 0,1.127 c 0.24,-0.527 0.684,-1.535 2.087,-1.224 l 0,2.375 c -1.187,-0.156 -1.882,0.456 -1.882,1.703 z"
         inkscape:connector-curvature="0"
         style="fill:#ffffff" />
      <path
         id="path33680"
         d="m 122.913,127.229 0,4.316 -3.059,0 0,-3.633 c 0,-0.324 -0.216,-0.588 -0.528,-0.588 -0.312,0 -0.54,0.264 -0.54,0.588 l 0,3.633 -3.058,0 0,-3.633 c 0,-0.324 -0.216,-0.588 -0.528,-0.588 -0.312,0 -0.54,0.264 -0.54,0.588 l 0,3.633 -3.059,0 0,-6.355 2.926,0 0,0.646 c 0.432,-0.467 1.175,-0.803 2.003,-0.803 0.792,0 1.463,0.359 1.859,0.924 0.312,-0.348 1.056,-0.924 2.267,-0.924 1.285,0 2.257,0.936 2.257,2.196 z"
         inkscape:connector-curvature="0"
         style="fill:#ffffff" />
      <path
         id="path33682"
         d="m 129.708,129.482 c 0,1.5 -1.199,2.219 -3.083,2.219 -1.055,0 -2.063,-0.287 -2.89,-0.731 l 0.276,-1.823 c 0.54,0.359 1.343,0.648 2.159,0.648 0.324,0 0.504,-0.084 0.504,-0.24 0,-0.396 -2.735,0 -2.735,-2.291 0,-1.512 1.248,-2.23 3.13,-2.23 0.888,0 1.715,0.203 2.447,0.516 l -0.264,1.738 c -0.432,-0.191 -1.211,-0.383 -1.715,-0.383 -0.3,0 -0.636,0.012 -0.636,0.215 0,0.443 2.807,0.012 2.807,2.362 z"
         inkscape:connector-curvature="0"
         style="fill:#ffffff" />
    </g>
    <rect
       style="clip-rule:evenodd;fill:none;fill-rule:evenodd"
       x="188.59901"
       y="46.784004"
       width="375.96301"
       height="199.564"
       id="broadcastContent" />
    <path
       style="clip-rule:evenodd;fill:#ffffff;fill-rule:evenodd"
       inkscape:connector-curvature="0"
       d="m 112.158,230.579 c 0,0 46.131,-1.123 57.923,-26.135 l 0,26.553 c 0,0 -22.988,13.693 -57.923,-0.418 z"
       id="path33696" />
  </g>
</svg>
